PathFileType	4	(X/Y/Z)	D:\MotionData\Pi-Spi Study\20230118_AMCsubject1\Trimmed_right_horiz_add01_rotated.trc
DataRate	CameraRate	NumFrames	NumMarkers	Units	OrigDataRate	OrigDataStartFrame	OrigNumFrames
200.00	200.00	       7	35	mm	200.00	1	       200
Frame#	Time	C7			Sternum			r_AMC1			r_AMC2			r_AMC3			l_AMC1			l_AMC2			l_AMC3			PX			T8			r_humerous			r_elbow_medial			r_elbow_lateral			r_forearm			r_wrist_radius			r_wrist_ulna			r_MCP_1			r_MCP_3			l_humerous			l_elbow_medial			l_elbow_lateral			l_forearm			l_wrist_radius			l_wrist_ulna			l_MCP_1			l_MCP_3			r_ASIS			r_PSIS			l_ASIS			l_PSIS			r_IC			l_IC			TS			AI			AA			
		X1	Y1	Z1	X2	Y2	Z2	X3	Y3	Z3	X4	Y4	Z4	X5	Y5	Z5	X6	Y6	Z6	X7	Y7	Z7	X8	Y8	Z8	X9	Y9	Z9	X10	Y10	Z10	X11	Y11	Z11	X12	Y12	Z12	X13	Y13	Z13	X14	Y14	Z14	X15	Y15	Z15	X16	Y16	Z16	X17	Y17	Z17	X18	Y18	Z18	X19	Y19	Z19	X20	Y20	Z20	X21	Y21	Z21	X22	Y22	Z22	X23	Y23	Z23	X24	Y24	Z24	X25	Y25	Z25	X26	Y26	Z26	X27	Y27	Z27	X28	Y28	Z28	X29	Y29	Z29	X30	Y30	Z30	X31	Y31	Z31	X32	Y32	Z32	X33	Y33	Z33	X34	Y34	Z34	X35	Y35	Z35	

1	0	163.8694	1374.0115	-219.214	301.3847	1316.3597	-213.6986	181.0351	1357.7726	-60.2535	218.8998	1388.8904	-56.6399	213.081	1402.946	-98.5462	185.9818	1318.9753	-381.6243	225.3313	1315.5406	-414.4022	244.9712	1354.652	-384.5124	367.9103	1125.993	-205.4183	133.1022	1187.1559	-221.0424	371.0018	1361.4083	-148.7257	489.3696	1274.3861	-187.5411	507.4152	1328.2301	-160.7033	638.4537	1349.68	-269.5944	687.0333	1321.699	-319.9125	678.0819	1371.7302	-328.5779	748.4097	1335.4076	-379.8923	744.4042	1383.6049	-380.1558	318.529	1127.1901	-403.4243	249.333	993.1187	-390.0695	270.6558	991.8947	-440.9613	334.0011	847.2855	-459.9671	381.3882	779.0776	-438.5477	339.5407	770.3442	-454.8875	398.9837	701.9178	-448.4715	351.4758	696.0302	-460.4422	337.9729	909.6775	-69.736	157.2537	927.9456	-165.825	359.4295	891.7774	-326.839	166.1388	920.7477	-268.0921	252.7767	970.3535	-46.48	272.6956	939.0316	-372.2778	92.1903	1297.4651	-104.2002	121.0909	1208.8516	-62.3505	169.3059	1362.9012	-0.55542
2	0.005	163.8752	1374.0171	-219.2003	301.3745	1316.3558	-213.6592	181.0424	1357.7981	-60.2398	218.8296	1389.0081	-56.6644	213.1311	1402.8787	-98.5002	185.9619	1319.002	-381.6181	225.3595	1315.5282	-414.3957	244.9667	1354.6344	-384.4986	367.8768	1126.007	-205.4331	133.094	1187.1467	-221.036	370.9957	1361.4153	-148.7129	489.9485	1274.8459	-187.2766	507.4241	1328.2067	-160.6987	638.4124	1349.6436	-269.6516	686.9787	1321.6942	-319.9752	678.0208	1371.7206	-328.6381	748.3193	1335.382	-379.9433	744.3345	1383.5677	-380.2718	318.534	1127.1883	-403.4046	249.3719	993.1225	-390.0561	270.6891	991.8809	-440.9214	333.9909	847.3415	-459.9474	381.4593	779.0471	-438.5729	340.0162	770.7449	-455.0062	399.0946	702.0112	-448.7791	351.5594	696.0297	-460.4204	337.9341	909.6467	-69.7045	157.2573	927.9611	-165.7934	359.4259	891.7752	-326.846	166.1233	920.7708	-268.093	252.7771	970.3113	-46.4879	272.7783	939.0002	-372.2403	92.1902	1297.4637	-104.1542	121.1182	1208.8738	-62.3396	169.3137	1362.9191	-0.54918
3	0.01	163.876	1374.0175	-219.1899	301.3544	1316.3564	-213.6566	181.0495	1357.8295	-60.237	218.7884	1389.1195	-56.7008	213.1346	1402.9	-98.4747	185.9708	1319.0342	-381.613	225.2976	1315.4185	-414.2171	245.0061	1354.6383	-384.484	367.8962	1126.0038	-205.3867	133.098	1187.1529	-221.0122	371.0294	1361.3253	-148.7059	489.9358	1274.8265	-187.2597	507.4128	1328.1834	-160.6959	638.3418	1349.7094	-269.6838	686.9072	1321.7246	-320.0612	677.9332	1371.73	-328.7109	748.2277	1335.4241	-380.0508	744.2469	1383.5425	-380.3604	318.5783	1127.1392	-403.3577	249.3957	993.09	-390.0333	270.7321	991.8716	-440.8974	334.019	847.3389	-459.911	381.4533	779.0721	-438.4742	340.1451	770.5391	-454.8443	399.1496	702.0227	-448.7488	351.5774	696.0178	-460.4067	337.902	909.646	-69.6654	157.2489	927.9459	-165.8113	359.432	891.7648	-326.8084	166.1421	920.7765	-268.0635	252.6457	970.4263	-46.4442	272.6817	939.1034	-372.2682	92.196	1297.4995	-104.1369	121.1036	1208.8735	-62.2858	169.2986	1362.9469	-0.53082
4	0.015	163.8976	1374.0393	-219.1902	301.3519	1316.3744	-213.6282	181.0562	1357.8373	-60.2144	218.8382	1389.0582	-56.6354	213.1255	1402.9276	-98.4904	186.0583	1318.9889	-381.6786	225.3891	1315.5124	-414.3641	245.0115	1354.6279	-384.4774	367.9396	1126.0248	-205.3462	133.1087	1187.1571	-220.9967	371.0074	1361.3705	-148.6976	489.9592	1274.8474	-187.2947	507.4109	1328.1562	-160.7161	638.3268	1349.6444	-269.7533	686.8777	1321.6443	-320.1194	677.8789	1371.6735	-328.7819	748.1659	1335.3557	-380.1649	744.1949	1383.5326	-380.4499	318.5862	1127.1869	-403.297	249.4327	993.0941	-390.0268	270.8711	992.0231	-440.9301	334.1288	847.2791	-459.8957	381.4912	779.074	-438.431	339.691	770.3949	-454.7887	399.1293	701.895	-448.3845	351.6405	696.0249	-460.3479	337.9345	909.6268	-69.6749	157.265	927.9575	-165.8368	359.4297	891.7728	-326.8015	166.1489	920.7577	-268.0638	252.7401	970.3329	-46.4412	272.8066	939.0026	-372.2574	92.2054	1297.4974	-104.1116	121.0857	1208.8862	-62.2594	169.2044	1363.0835	-0.554
5	0.02	163.9024	1374.0311	-219.1721	301.3843	1316.3603	-213.6135	181.053	1357.8582	-60.2088	218.8189	1389.1222	-56.6355	213.1904	1402.8921	-98.4963	186.0239	1318.9973	-381.6	225.4312	1315.5078	-414.3452	244.9946	1354.6354	-384.4512	367.8617	1126.0116	-205.3155	133.1183	1187.1481	-220.9816	370.9728	1361.4307	-148.6596	489.9246	1274.8308	-187.2999	507.3934	1328.1606	-160.7112	638.3011	1349.6622	-269.79	686.799	1321.6997	-320.1705	677.7752	1371.702	-328.8738	748.1004	1335.3563	-380.2357	744.119	1383.5753	-380.5314	318.5784	1127.2345	-403.2931	249.4756	993.0978	-390.0069	270.8105	991.8614	-440.8676	334.1112	847.3431	-459.8424	381.534	779.0723	-438.4008	339.6761	770.481	-454.7659	399.1424	701.8955	-448.342	351.7353	696.0436	-460.3112	337.904	909.652	-69.633	157.2499	927.9554	-165.7973	359.4443	891.8015	-326.7974	166.1388	920.7778	-268.0587	252.699	970.3669	-46.3935	272.7207	939.0845	-372.2437	92.1935	1297.5165	-104.0862	121.1	1208.9416	-62.237	169.3167	1362.9919	-0.52568
6	0.025	163.9143	1374.0399	-219.1647	301.3609	1316.3704	-213.5857	181.0925	1357.8761	-60.1848	218.8047	1389.1942	-56.6336	213.1685	1402.9305	-98.4575	185.9968	1319.0686	-381.6146	225.4301	1315.5079	-414.3091	245.0085	1354.6446	-384.4605	367.8693	1126.01	-205.2844	133.1017	1187.1648	-220.9554	371.0093	1361.3837	-148.6693	489.9186	1274.8729	-187.2762	507.414	1328.165	-160.725	638.2457	1349.7144	-269.8424	686.7639	1321.7413	-320.2098	677.6988	1371.7515	-328.9313	748.0428	1335.4054	-380.3094	744.059	1383.5325	-380.6352	318.6408	1127.21	-403.3061	249.4874	993.0848	-389.99	270.8647	991.8642	-440.847	334.0922	847.4189	-459.8495	381.5751	779.0873	-438.3408	340.2602	770.6035	-454.7604	399.2594	702.0308	-448.649	351.7666	696.0449	-460.2912	337.9193	909.6643	-69.632	157.2603	927.9587	-165.7985	359.4546	891.7696	-326.7707	166.1554	920.803	-268.0393	252.6763	970.3611	-46.3966	272.7126	939.1491	-372.2695	92.2002	1297.5472	-104.0797	121.1106	1208.9523	-62.2007	169.1926	1363.1475	-0.53397
7	0.03	163.9317	1374.0553	-219.144	301.3959	1316.3761	-213.5625	181.0875	1357.8897	-60.1625	218.7456	1389.2356	-56.386	213.1497	1402.963	-98.4701	186.0712	1318.975	-381.6238	225.4553	1315.5024	-414.3162	245.0215	1354.6487	-384.4365	367.8708	1126.0371	-205.2425	133.112	1187.162	-220.9564	370.9923	1361.3946	-148.675	489.8545	1274.9011	-187.2705	507.3833	1328.1891	-160.7193	638.2353	1349.7017	-269.898	686.7064	1321.7654	-320.2886	677.6697	1371.7018	-328.9979	748.019	1335.3523	-380.3832	743.905	1383.3716	-380.8236	318.6566	1127.2312	-403.2627	249.5323	993.0836	-389.9853	270.8795	991.8693	-440.8119	334.2363	847.3285	-459.8008	381.5947	779.0877	-438.3186	340.2524	770.7672	-454.7946	399.3013	702.0384	-448.614	351.8386	696.0508	-460.252	337.888	909.6469	-69.6283	157.2747	927.9703	-165.7872	359.4322	891.8049	-326.7846	166.1498	920.7921	-268.0559	252.6561	970.3782	-46.4089	272.7236	939.1538	-372.2321	92.2018	1297.5564	-104.0472	121.1339	1208.9747	-62.1905	169.3291	1363.036	-0.48628
